<svg width="319" height="200" viewBox="0 0 319 200" fill="none" xmlns="http://www.w3.org/2000/svg">
<path d="M204.851 81.5278C199.346 78.0386 192.999 76.117 186.462 76.3349C179.967 76.5515 173.725 79.0399 167.151 78.5231C161.742 78.0979 156.278 76.7667 152.062 73.2033C150.584 71.9548 149.319 70.3295 148.242 68.7331C143.262 61.3499 143.317 51.4344 148.377 44.4165C153.072 37.9052 161.227 35.1919 168.336 37.7755C174.62 40.0595 178.318 46.1467 177.168 52.3142C176.415 56.3548 173.156 59.4039 169.312 59.6648C166.886 59.8296 164.712 58.3224 164.004 56.3385C163.812 55.8006 163.703 55.2378 163.649 54.6906C163.295 51.0926 158.661 49.3896 155.996 51.6289C152.276 54.7549 155.412 61.7633 157.912 64.6525C161.974 69.3486 168.444 70.5532 174.232 68.7689C188.496 64.3718 191.474 45.7354 181.939 35.1345C175.277 27.7271 166.854 25.2253 157.198 27.1544C145.373 29.5168 136.369 39.4851 134.62 51.6821C133.804 57.3742 134.343 63.2044 136.513 68.5502C139.455 75.7984 146.055 80.6007 148.695 87.9948C150.097 91.9227 150.677 96.1211 150.458 100.283C150.163 104.492 148.795 108.633 146.337 112.37C141.441 119.809 132.27 123.578 123.845 121.612C116.027 119.787 110.382 113.307 110.028 105.752C109.715 99.0726 113.908 93.315 120.042 92.0003C124.061 91.1389 128.13 92.9718 129.852 96.4185C130.938 98.5941 130.385 101.18 128.827 102.599C128.405 102.983 127.927 103.3 127.443 103.561C125.433 104.643 124.745 106.964 125.293 108.948C125.619 110.13 126.383 111.192 127.565 111.802C130.416 113.274 133.602 111.037 135.65 109.223C136.912 108.106 138.096 106.525 138.846 105.018C141.615 99.4597 140.234 93.0257 136.358 88.3712C126.806 76.9026 108.46 81.3331 102.351 94.2159C98.0817 103.218 99.0172 111.954 104.517 120.121C111.252 130.124 123.92 134.594 135.849 131.509C141.08 130.157 145.98 127.657 149.952 123.969C156.748 117.659 159.598 108.385 164.979 101.011C169.634 94.6332 175.579 88.3633 183.713 86.9596C192.489 85.4455 201.51 89.5621 205.835 97.0549C209.848 104.007 208.979 112.557 203.707 117.982C199.047 122.776 191.979 123.653 186.825 120.075C183.449 117.731 182.005 113.508 183.343 109.895C184.188 107.615 186.454 106.251 188.554 106.418C189.123 106.463 189.681 106.595 190.202 106.77C192.366 107.498 194.53 106.412 195.604 104.656C196.737 102.802 196.044 100.239 194.526 98.817C192.919 97.3124 190.811 97.1044 188.723 96.9093C187.046 96.7524 185.082 96.9697 183.469 97.4521C177.52 99.2317 173.769 104.638 173.022 110.649C171.183 125.461 186.959 135.82 200.538 131.472C210.026 128.433 215.761 121.777 217.962 112.179C220.656 100.425 215.257 88.1247 204.851 81.5278Z" fill="#262629"/>
<path d="M131.466 166.992C131.466 167.745 131.367 168.4 131.169 168.956C130.971 169.512 130.694 169.992 130.336 170.397C129.987 170.793 129.563 171.118 129.064 171.372C128.574 171.617 128.028 171.815 127.425 171.966C126.831 172.107 126.195 172.206 125.517 172.262C124.839 172.319 124.137 172.347 123.412 172.347H109.324V152.932H123.157C123.713 152.932 124.269 152.956 124.825 153.003C125.39 153.05 125.927 153.139 126.436 153.271C126.944 153.394 127.415 153.568 127.849 153.794C128.291 154.02 128.673 154.317 128.993 154.684C129.323 155.052 129.577 155.494 129.756 156.013C129.945 156.531 130.039 157.143 130.039 157.85C130.039 159.112 129.728 160.115 129.106 160.859C128.485 161.594 127.505 162.084 126.167 162.329C127.109 162.395 127.915 162.541 128.583 162.767C129.262 162.984 129.813 163.285 130.237 163.671C130.661 164.048 130.971 164.514 131.169 165.07C131.367 165.617 131.466 166.257 131.466 166.992ZM124.924 158.683C124.924 158.438 124.886 158.208 124.811 157.991C124.735 157.765 124.599 157.567 124.401 157.397C124.203 157.228 123.935 157.091 123.595 156.988C123.256 156.884 122.823 156.832 122.295 156.832H114.566V160.478H122.295C122.823 160.478 123.256 160.431 123.595 160.336C123.935 160.242 124.203 160.115 124.401 159.955C124.599 159.795 124.735 159.606 124.811 159.39C124.886 159.164 124.924 158.928 124.924 158.683ZM126.139 166.384C126.139 165.942 126.064 165.588 125.913 165.324C125.762 165.051 125.527 164.844 125.206 164.703C124.886 164.552 124.472 164.453 123.963 164.406C123.454 164.359 122.847 164.335 122.14 164.335H114.566V168.447H122.14C122.847 168.447 123.454 168.424 123.963 168.377C124.472 168.33 124.886 168.231 125.206 168.08C125.527 167.929 125.762 167.722 125.913 167.458C126.064 167.185 126.139 166.827 126.139 166.384Z" fill="#262629"/>
<path d="M141.414 152.932V163.869C141.414 164.594 141.475 165.254 141.597 165.847C141.72 166.431 141.946 166.935 142.276 167.359C142.605 167.774 143.067 168.099 143.661 168.334C144.254 168.56 145.026 168.673 145.978 168.673C146.694 168.673 147.443 168.574 148.225 168.377C149.016 168.179 149.798 167.915 150.57 167.585C151.343 167.256 152.077 166.879 152.775 166.455C153.481 166.022 154.112 165.574 154.668 165.113V152.932H159.896V172.347H154.668V169.691C154.009 170.068 153.307 170.449 152.563 170.835C151.818 171.212 151.027 171.556 150.189 171.867C149.35 172.168 148.46 172.413 147.518 172.602C146.576 172.799 145.582 172.898 144.537 172.898C143.227 172.898 142.054 172.738 141.018 172.418C139.982 172.107 139.106 171.664 138.39 171.09C137.674 170.506 137.123 169.804 136.737 168.984C136.36 168.155 136.171 167.232 136.171 166.215V152.932H141.414Z" fill="#262629"/>
<path d="M165.986 172.347V152.932H171.229V172.347H165.986Z" fill="#262629"/>
<path d="M182.561 164.039C182.561 164.849 182.637 165.513 182.787 166.031C182.938 166.54 183.183 166.945 183.522 167.246C183.861 167.548 184.299 167.755 184.836 167.868C185.383 167.981 186.051 168.038 186.843 168.038H196.791V172.347H185.769C184.243 172.347 182.943 172.225 181.869 171.98C180.804 171.726 179.933 171.339 179.255 170.821C178.577 170.294 178.082 169.63 177.771 168.829C177.47 168.028 177.319 167.077 177.319 165.974V152.932H182.561V164.039Z" fill="#262629"/>
<path d="M224.783 162.626C224.783 163.869 224.646 164.976 224.373 165.946C224.1 166.907 223.714 167.745 223.214 168.461C222.724 169.177 222.131 169.785 221.434 170.284C220.746 170.784 219.978 171.184 219.131 171.485C218.283 171.787 217.369 172.008 216.389 172.149C215.41 172.281 214.387 172.347 213.323 172.347H201.001V152.932H213.295C214.359 152.932 215.381 153.003 216.361 153.144C217.341 153.276 218.254 153.493 219.102 153.794C219.96 154.096 220.737 154.496 221.434 154.995C222.131 155.485 222.724 156.093 223.214 156.818C223.714 157.534 224.1 158.372 224.373 159.333C224.646 160.294 224.783 161.392 224.783 162.626ZM219.498 162.626C219.498 161.693 219.376 160.883 219.131 160.195C218.895 159.508 218.509 158.942 217.972 158.5C217.444 158.047 216.752 157.713 215.895 157.496C215.037 157.27 213.992 157.157 212.758 157.157H206.244V168.122H212.758C213.992 168.122 215.037 168.014 215.895 167.797C216.752 167.571 217.444 167.232 217.972 166.78C218.509 166.318 218.895 165.744 219.131 165.056C219.376 164.368 219.498 163.558 219.498 162.626Z" fill="#262629"/>
<path d="M251.221 171.386C249.629 171.914 248.037 172.291 246.444 172.517C244.862 172.752 243.242 172.87 241.584 172.87C239.464 172.87 237.575 172.644 235.917 172.192C234.269 171.73 232.879 171.066 231.749 170.199C230.619 169.333 229.757 168.273 229.163 167.02C228.57 165.767 228.273 164.35 228.273 162.767C228.273 161.297 228.57 159.936 229.163 158.683C229.766 157.421 230.614 156.328 231.707 155.405C232.809 154.472 234.137 153.747 235.691 153.229C237.246 152.701 238.979 152.438 240.891 152.438C242.653 152.438 244.264 152.678 245.724 153.158C247.193 153.629 248.451 154.331 249.497 155.264C250.552 156.196 251.367 157.346 251.941 158.712C252.525 160.077 252.817 161.651 252.817 163.431V164.731H233.685C233.854 165.343 234.132 165.904 234.519 166.413C234.914 166.921 235.446 167.355 236.115 167.713C236.784 168.07 237.604 168.348 238.574 168.546C239.554 168.744 240.722 168.843 242.078 168.843C243.039 168.843 243.981 168.786 244.904 168.673C245.827 168.551 246.689 168.395 247.49 168.207C248.291 168.009 249.012 167.793 249.652 167.557C250.302 167.322 250.825 167.086 251.221 166.851V171.386ZM247.603 160.888C247.556 160.407 247.41 159.913 247.165 159.404C246.93 158.886 246.553 158.419 246.035 158.005C245.517 157.59 244.838 157.251 244 156.988C243.162 156.714 242.116 156.578 240.863 156.578C239.685 156.578 238.668 156.724 237.811 157.016C236.954 157.308 236.233 157.671 235.649 158.104C235.074 158.537 234.627 159.004 234.307 159.503C233.986 160.002 233.779 160.464 233.685 160.888H247.603Z" fill="#262629"/>
<path d="M275.44 157.327C275.299 157.28 275.091 157.218 274.818 157.143C274.554 157.058 274.244 156.978 273.886 156.903C273.528 156.818 273.132 156.747 272.699 156.691C272.275 156.634 271.837 156.606 271.385 156.606C270.443 156.606 269.562 156.724 268.742 156.959C267.932 157.185 267.174 157.492 266.467 157.878C265.761 158.255 265.101 158.688 264.489 159.178C263.886 159.658 263.33 160.153 262.822 160.661V172.347H257.579V152.932H262.822V156.083C263.453 155.612 264.098 155.16 264.757 154.727C265.426 154.284 266.119 153.893 266.835 153.554C267.56 153.215 268.323 152.946 269.124 152.749C269.924 152.541 270.772 152.438 271.667 152.438C272.006 152.438 272.35 152.456 272.699 152.494C273.057 152.522 273.4 152.56 273.73 152.607C274.069 152.654 274.385 152.706 274.677 152.763C274.969 152.819 275.223 152.876 275.44 152.932V157.327Z" fill="#262629"/>
<path d="M296.664 158.401C296.296 158.222 295.811 158.019 295.208 157.793C294.605 157.567 293.922 157.355 293.159 157.157C292.396 156.95 291.567 156.78 290.672 156.648C289.777 156.507 288.859 156.437 287.917 156.437C287.163 156.437 286.518 156.46 285.981 156.507C285.454 156.554 285.006 156.616 284.639 156.691C284.281 156.766 283.993 156.856 283.777 156.959C283.57 157.054 283.409 157.152 283.296 157.256C283.183 157.36 283.108 157.463 283.07 157.567C283.042 157.671 283.028 157.765 283.028 157.85C283.028 158.132 283.169 158.382 283.452 158.598C283.734 158.806 284.121 158.994 284.611 159.164C285.1 159.324 285.67 159.479 286.32 159.63C286.97 159.771 287.658 159.922 288.383 160.082C289.118 160.233 289.872 160.402 290.644 160.591C291.426 160.77 292.18 160.982 292.905 161.227C293.64 161.472 294.332 161.759 294.982 162.089C295.632 162.409 296.202 162.786 296.692 163.219C297.182 163.652 297.568 164.152 297.851 164.717C298.133 165.282 298.275 165.927 298.275 166.653C298.275 167.585 298.11 168.386 297.78 169.055C297.45 169.724 297.008 170.289 296.452 170.751C295.905 171.212 295.269 171.584 294.544 171.867C293.819 172.14 293.056 172.352 292.255 172.503C291.464 172.653 290.658 172.752 289.839 172.799C289.029 172.847 288.256 172.87 287.521 172.87C285.6 172.87 283.819 172.71 282.18 172.39C280.55 172.079 279.109 171.688 277.856 171.217V166.582C279.147 167.298 280.616 167.859 282.265 168.264C283.923 168.669 285.694 168.871 287.578 168.871C288.689 168.871 289.594 168.815 290.291 168.702C290.997 168.579 291.548 168.428 291.944 168.249C292.34 168.061 292.608 167.859 292.75 167.642C292.891 167.425 292.962 167.218 292.962 167.02C292.962 166.709 292.82 166.441 292.538 166.215C292.255 165.979 291.869 165.777 291.379 165.607C290.889 165.428 290.319 165.268 289.669 165.127C289.019 164.976 288.327 164.83 287.592 164.689C286.867 164.538 286.118 164.378 285.345 164.208C284.573 164.039 283.819 163.841 283.084 163.615C282.359 163.379 281.671 163.111 281.021 162.809C280.371 162.498 279.801 162.136 279.312 161.721C278.822 161.297 278.436 160.812 278.153 160.266C277.87 159.71 277.729 159.069 277.729 158.344C277.729 157.487 277.88 156.747 278.181 156.126C278.483 155.504 278.888 154.976 279.396 154.543C279.915 154.1 280.508 153.742 281.177 153.469C281.855 153.196 282.566 152.984 283.311 152.833C284.055 152.683 284.808 152.579 285.571 152.522C286.334 152.466 287.06 152.438 287.747 152.438C288.501 152.438 289.274 152.475 290.065 152.551C290.866 152.626 291.652 152.734 292.425 152.876C293.197 153.008 293.941 153.163 294.657 153.342C295.383 153.521 296.051 153.709 296.664 153.907V158.401Z" fill="#262629"/>
<path d="M46.8113 162.654C46.8113 164.321 46.5051 165.796 45.8928 167.077C45.2805 168.348 44.4044 169.413 43.2645 170.27C42.1247 171.127 40.7399 171.777 39.1102 172.22C37.4899 172.653 35.6671 172.87 33.6418 172.87C31.6164 172.87 29.7842 172.653 28.1451 172.22C26.5154 171.777 25.1259 171.127 23.9766 170.27C22.8274 169.413 21.9419 168.348 21.3201 167.077C20.6984 165.796 20.3875 164.321 20.3875 162.654C20.3875 160.986 20.6984 159.517 21.3201 158.245C21.9419 156.964 22.8274 155.895 23.9766 155.038C25.1259 154.18 26.5154 153.535 28.1451 153.102C29.7842 152.659 31.6164 152.438 33.6418 152.438C35.6671 152.438 37.4899 152.659 39.1102 153.102C40.7399 153.535 42.1247 154.18 43.2645 155.038C44.4044 155.895 45.2805 156.964 45.8928 158.245C46.5051 159.517 46.8113 160.986 46.8113 162.654ZM41.5124 162.654C41.5124 161.929 41.3946 161.208 41.1591 160.492C40.933 159.767 40.5233 159.117 39.9298 158.542C39.3457 157.967 38.545 157.501 37.5276 157.143C36.5102 156.785 35.215 156.606 33.6418 156.606C32.5867 156.606 31.6588 156.691 30.8581 156.86C30.0574 157.021 29.365 157.247 28.781 157.539C28.1969 157.831 27.7071 158.175 27.3114 158.57C26.9158 158.956 26.6002 159.376 26.3647 159.828C26.1292 160.271 25.9596 160.737 25.856 161.227C25.7618 161.707 25.7147 162.183 25.7147 162.654C25.7147 163.134 25.7618 163.619 25.856 164.109C25.9596 164.599 26.1292 165.07 26.3647 165.522C26.6002 165.965 26.9158 166.38 27.3114 166.766C27.7071 167.152 28.1969 167.491 28.781 167.783C29.365 168.066 30.0574 168.292 30.8581 168.461C31.6588 168.622 32.5867 168.702 33.6418 168.702C35.215 168.702 36.5102 168.523 37.5276 168.165C38.545 167.807 39.3457 167.34 39.9298 166.766C40.5233 166.191 40.933 165.546 41.1591 164.83C41.3946 164.105 41.5124 163.379 41.5124 162.654Z" fill="#262629"/>
<path d="M70.0839 172.347V161.467C70.0839 160.742 70.0227 160.087 69.9002 159.503C69.7777 158.909 69.5469 158.405 69.2078 157.991C68.8781 157.567 68.4118 157.242 67.8089 157.016C67.2154 156.78 66.4477 156.663 65.5057 156.663C64.7897 156.663 64.0361 156.762 63.2448 156.959C62.4629 157.148 61.6858 157.402 60.9133 157.722C60.1409 158.043 59.4014 158.415 58.6949 158.839C57.9978 159.263 57.376 159.705 56.8297 160.167V172.347H51.5873V152.932H56.8297V155.589C57.4891 155.212 58.1909 154.84 58.9351 154.472C59.6793 154.096 60.4706 153.756 61.309 153.455C62.1474 153.154 63.0376 152.909 63.9796 152.72C64.9216 152.532 65.9155 152.438 66.9611 152.438C68.2705 152.438 69.4386 152.598 70.4654 152.918C71.5016 153.229 72.3777 153.676 73.0937 154.26C73.8096 154.835 74.356 155.537 74.7328 156.366C75.119 157.185 75.3121 158.104 75.3121 159.121V172.347H70.0839Z" fill="#262629"/>
<path d="M102.965 171.386C101.373 171.914 99.7811 172.291 98.1891 172.517C96.6065 172.752 94.9862 172.87 93.3283 172.87C91.2087 172.87 89.32 172.644 87.662 172.192C86.0135 171.73 84.624 171.066 83.4936 170.199C82.3631 169.333 81.5012 168.273 80.9077 167.02C80.3143 165.767 80.0175 164.35 80.0175 162.767C80.0175 161.297 80.3143 159.936 80.9077 158.683C81.5106 157.421 82.3584 156.328 83.4512 155.405C84.5534 154.472 85.8816 153.747 87.4359 153.229C88.9903 152.701 90.7236 152.438 92.6359 152.438C94.3975 152.438 96.0083 152.678 97.4685 153.158C98.938 153.629 100.196 154.331 101.241 155.264C102.296 156.196 103.111 157.346 103.686 158.712C104.27 160.077 104.562 161.651 104.562 163.431V164.731H85.4294C85.599 165.343 85.8769 165.904 86.2631 166.413C86.6588 166.921 87.191 167.355 87.8598 167.713C88.5287 168.07 89.3482 168.348 90.3185 168.546C91.2982 168.744 92.4663 168.843 93.8228 168.843C94.7837 168.843 95.7257 168.786 96.6489 168.673C97.5721 168.551 98.434 168.395 99.2348 168.207C100.035 168.009 100.756 167.793 101.397 167.557C102.047 167.322 102.57 167.086 102.965 166.851V171.386ZM99.3478 160.888C99.3007 160.407 99.1547 159.913 98.9098 159.404C98.6743 158.886 98.2974 158.419 97.7793 158.005C97.2612 157.59 96.583 157.251 95.7446 156.988C94.9062 156.714 93.8605 156.578 92.6076 156.578C91.4301 156.578 90.4127 156.724 89.5555 157.016C88.6982 157.308 87.9776 157.671 87.3935 158.104C86.8189 158.537 86.3715 159.004 86.0512 159.503C85.7309 160.002 85.5236 160.464 85.4294 160.888H99.3478Z" fill="#262629"/>
</svg>
